<svg width="122" height="40" viewBox="0 0 122 40" fill="none" xmlns="http://www.w3.org/2000/svg">
<g clip-path="url(#clip0_11725_20148)">
<path d="M5.3291 0.500977H116.325C118.804 0.500977 120.827 2.52184 120.827 5.00098V35.001C120.827 37.4708 118.803 39.501 116.325 39.501H5.3291C2.849 39.501 0.827148 37.471 0.827148 35.001V5.00098C0.827148 2.52167 2.84835 0.500977 5.3291 0.500977Z" stroke="#141414"/>
<path d="M16.8572 17.0493L14.2028 12.5971C14.1317 12.4776 14.1122 12.3356 14.1488 12.2023C14.1853 12.069 14.2748 11.955 14.3978 11.8854C14.4586 11.8509 14.5258 11.8284 14.5956 11.8192C14.6654 11.81 14.7364 11.8143 14.8045 11.8318C14.8725 11.8494 14.9363 11.8799 14.9922 11.9215C15.048 11.9631 15.0947 12.015 15.1297 12.0742L17.8172 16.5839C19.8691 15.6762 22.1784 15.1708 24.6622 15.1708C27.1459 15.1708 29.4553 15.6768 31.5072 16.5839L34.1947 12.0742C34.2663 11.9548 34.384 11.8678 34.5218 11.8324C34.6596 11.797 34.8064 11.8161 34.9297 11.8854C35.053 11.9547 35.1428 12.0687 35.1794 12.2021C35.216 12.3356 35.1963 12.4777 35.1247 12.5971L32.4766 17.0493C37.0516 19.4482 40.1522 23.9343 40.6641 29.1859H8.66406C9.17594 23.9343 12.2766 19.4482 16.8572 17.0493ZM32.0109 24.8347C32.2762 24.8347 32.5355 24.7586 32.7561 24.6159C32.9767 24.4732 33.1486 24.2703 33.2501 24.033C33.3516 23.7957 33.3782 23.5346 33.3264 23.2827C33.2747 23.0308 33.1469 22.7994 32.9593 22.6177C32.7718 22.4361 32.5328 22.3124 32.2726 22.2623C32.0124 22.2122 31.7427 22.2379 31.4977 22.3362C31.2526 22.4345 31.0431 22.601 30.8957 22.8145C30.7484 23.0281 30.6697 23.2792 30.6697 23.5361C30.6699 23.8804 30.8112 24.2107 31.0627 24.4542C31.3142 24.6977 31.6553 24.8346 32.0109 24.8347ZM17.3234 24.8347C17.5885 24.8337 17.8472 24.7566 18.0671 24.6132C18.2869 24.4699 18.4579 24.2667 18.5586 24.0293C18.6592 23.7919 18.685 23.5309 18.6326 23.2794C18.5802 23.0278 18.452 22.7969 18.2642 22.6158C18.0764 22.4348 17.8374 22.3116 17.5774 22.2619C17.3174 22.2123 17.048 22.2383 16.8032 22.3368C16.5585 22.4352 16.3493 22.6017 16.2022 22.8151C16.0551 23.0286 15.9766 23.2794 15.9766 23.5361C15.9766 23.7068 16.0115 23.8759 16.0791 24.0336C16.1468 24.1914 16.2458 24.3346 16.3707 24.4553C16.4956 24.5759 16.6437 24.6715 16.8068 24.7366C16.9699 24.8017 17.1446 24.8351 17.3209 24.8347H17.3234Z" fill="#141414"/>
<path d="M106.602 29.2427V18.0625H108.664V31.1515H106.798L106.602 29.2427ZM100.603 26.6436V26.4647C100.603 25.7659 100.685 25.1297 100.85 24.5559C101.014 23.9764 101.253 23.4793 101.565 23.0646C101.878 22.6442 102.259 22.3232 102.707 22.1017C103.156 21.8744 103.662 21.7608 104.224 21.7608C104.781 21.7608 105.269 21.8688 105.69 22.0846C106.11 22.3005 106.468 22.6101 106.764 23.0135C107.059 23.4112 107.295 23.8884 107.471 24.4451C107.647 24.9961 107.772 25.6097 107.846 26.2857V26.8567C107.772 27.5157 107.647 28.1179 107.471 28.6632C107.295 29.2086 107.059 29.6801 106.764 30.0778C106.468 30.4755 106.107 30.7822 105.681 30.9981C105.261 31.214 104.77 31.3219 104.207 31.3219C103.65 31.3219 103.148 31.2055 102.699 30.9725C102.256 30.7396 101.878 30.413 101.565 29.9926C101.253 29.5722 101.014 29.0779 100.85 28.5098C100.685 27.9361 100.603 27.314 100.603 26.6436ZM102.656 26.4647V26.6436C102.656 27.064 102.693 27.456 102.767 27.8196C102.847 28.1832 102.969 28.5042 103.133 28.7825C103.298 29.0552 103.511 29.2711 103.773 29.4302C104.04 29.5835 104.358 29.6602 104.727 29.6602C105.193 29.6602 105.576 29.558 105.877 29.3535C106.178 29.149 106.414 28.8734 106.585 28.5269C106.761 28.1747 106.88 27.7827 106.943 27.3509V25.8085C106.908 25.4734 106.837 25.1609 106.729 24.8712C106.627 24.5814 106.488 24.3286 106.312 24.1128C106.136 23.8912 105.917 23.7208 105.656 23.6015C105.4 23.4765 105.096 23.414 104.744 23.414C104.369 23.414 104.051 23.4935 103.79 23.6526C103.528 23.8117 103.312 24.0304 103.142 24.3087C102.977 24.5871 102.855 24.9109 102.776 25.2802C102.696 25.6495 102.656 26.0443 102.656 26.4647Z" fill="#141414"/>
<path d="M98.7278 21.9313V31.1515H96.6656V21.9313H98.7278ZM96.5293 19.5112C96.5293 19.1987 96.6316 18.9402 96.8361 18.7357C97.0463 18.5255 97.336 18.4204 97.7053 18.4204C98.0688 18.4204 98.3557 18.5255 98.5659 18.7357C98.7761 18.9402 98.8812 19.1987 98.8812 19.5112C98.8812 19.8179 98.7761 20.0736 98.5659 20.2781C98.3557 20.4826 98.0688 20.5849 97.7053 20.5849C97.336 20.5849 97.0463 20.4826 96.8361 20.2781C96.6316 20.0736 96.5293 19.8179 96.5293 19.5112Z" fill="#141414"/>
<path d="M86.2354 26.6436V26.4476C86.2354 25.7829 86.3319 25.1665 86.5251 24.5984C86.7182 24.0246 86.9966 23.5275 87.3602 23.1071C87.7295 22.6811 88.1782 22.3516 88.7066 22.1186C89.2406 21.88 89.8428 21.7607 90.5131 21.7607C91.1892 21.7607 91.7914 21.88 92.3197 22.1186C92.8537 22.3516 93.3053 22.6811 93.6746 23.1071C94.0439 23.5275 94.3251 24.0246 94.5182 24.5984C94.7114 25.1665 94.808 25.7829 94.808 26.4476V26.6436C94.808 27.3082 94.7114 27.9246 94.5182 28.4927C94.3251 29.0608 94.0439 29.5579 93.6746 29.984C93.3053 30.4044 92.8565 30.7339 92.3282 30.9725C91.7999 31.2054 91.2005 31.3218 90.5302 31.3218C89.8541 31.3218 89.2491 31.2054 88.7151 30.9725C88.1868 30.7339 87.738 30.4044 87.3687 29.984C86.9994 29.5579 86.7182 29.0608 86.5251 28.4927C86.3319 27.9246 86.2354 27.3082 86.2354 26.6436ZM88.289 26.4476V26.6436C88.289 27.0583 88.3316 27.4503 88.4169 27.8195C88.5021 28.1888 88.6356 28.5126 88.8174 28.791C88.9992 29.0693 89.2321 29.2881 89.5161 29.4471C89.8002 29.6062 90.1382 29.6857 90.5302 29.6857C90.9108 29.6857 91.2403 29.6062 91.5187 29.4471C91.8027 29.2881 92.0356 29.0693 92.2174 28.791C92.3992 28.5126 92.5327 28.1888 92.6179 27.8195C92.7088 27.4503 92.7543 27.0583 92.7543 26.6436V26.4476C92.7543 26.0385 92.7088 25.6522 92.6179 25.2886C92.5327 24.9194 92.3964 24.5927 92.2089 24.3087C92.0271 24.0246 91.7942 23.8031 91.5102 23.644C91.2318 23.4792 90.8994 23.3969 90.5131 23.3969C90.1268 23.3969 89.7917 23.4792 89.5076 23.644C89.2292 23.8031 88.9992 24.0246 88.8174 24.3087C88.6356 24.5927 88.5021 24.9194 88.4169 25.2886C88.3316 25.6522 88.289 26.0385 88.289 26.4476Z" fill="#141414"/>
<path d="M82.7422 23.6866V31.1514H80.6885V21.9312H82.6484L82.7422 23.6866ZM85.5628 21.8715L85.5457 23.7803C85.4207 23.7576 85.2844 23.7406 85.1367 23.7292C84.9947 23.7178 84.8526 23.7122 84.7106 23.7122C84.3584 23.7122 84.0488 23.7633 83.7818 23.8655C83.5148 23.9621 83.2904 24.1042 83.1086 24.2916C82.9325 24.4734 82.7961 24.695 82.6995 24.9563C82.603 25.2176 82.5462 25.5102 82.5291 25.834L82.0604 25.8681C82.0604 25.2886 82.1172 24.7518 82.2309 24.2575C82.3445 23.7633 82.5149 23.3287 82.7422 22.9538C82.9751 22.5788 83.2648 22.2862 83.6113 22.076C83.9636 21.8658 84.3698 21.7607 84.8299 21.7607C84.9549 21.7607 85.0884 21.7721 85.2304 21.7948C85.3781 21.8176 85.4889 21.8431 85.5628 21.8715Z" fill="#141414"/>
<path d="M76.4698 29.2427V18.0625H78.532V31.1515H76.6658L76.4698 29.2427ZM70.4707 26.6436V26.4647C70.4707 25.7659 70.5531 25.1297 70.7178 24.5559C70.8826 23.9764 71.1212 23.4793 71.4336 23.0646C71.7461 22.6442 72.1267 22.3232 72.5755 22.1017C73.0243 21.8744 73.5299 21.7608 74.0923 21.7608C74.6491 21.7608 75.1376 21.8688 75.558 22.0846C75.9784 22.3005 76.3363 22.6101 76.6317 23.0135C76.9271 23.4112 77.1629 23.8884 77.339 24.4451C77.5151 24.9961 77.6401 25.6097 77.714 26.2857V26.8567C77.6401 27.5157 77.5151 28.1179 77.339 28.6632C77.1629 29.2086 76.9271 29.6801 76.6317 30.0778C76.3363 30.4755 75.9756 30.7822 75.5495 30.9981C75.1291 31.214 74.6377 31.3219 74.0753 31.3219C73.5186 31.3219 73.0158 31.2055 72.567 30.9725C72.1239 30.7396 71.7461 30.413 71.4336 29.9926C71.1212 29.5722 70.8826 29.0779 70.7178 28.5098C70.5531 27.9361 70.4707 27.314 70.4707 26.6436ZM72.5244 26.4647V26.6436C72.5244 27.064 72.5613 27.456 72.6352 27.8196C72.7147 28.1832 72.8368 28.5042 73.0016 28.7825C73.1663 29.0552 73.3794 29.2711 73.6407 29.4302C73.9077 29.5835 74.2258 29.6602 74.5951 29.6602C75.0609 29.6602 75.4444 29.558 75.7455 29.3535C76.0466 29.149 76.2824 28.8734 76.4528 28.5269C76.6289 28.1747 76.7482 27.7827 76.8107 27.3509V25.8085C76.7766 25.4734 76.7056 25.1609 76.5977 24.8712C76.4954 24.5814 76.3562 24.3286 76.1801 24.1128C76.004 23.8912 75.7853 23.7208 75.5239 23.6015C75.2683 23.4765 74.9644 23.414 74.6121 23.414C74.2372 23.414 73.9191 23.4935 73.6577 23.6526C73.3964 23.8117 73.1805 24.0304 73.0101 24.3087C72.8454 24.5871 72.7232 24.9109 72.6437 25.2802C72.5641 25.6495 72.5244 26.0443 72.5244 26.4647Z" fill="#141414"/>
<path d="M63.1679 23.8996V31.1514H61.1143V21.9312H63.0486L63.1679 23.8996ZM62.8015 26.2004L62.1368 26.1919C62.1425 25.5386 62.2334 24.9393 62.4095 24.3939C62.5913 23.8485 62.8413 23.3798 63.1594 22.9878C63.4832 22.5958 63.8695 22.2948 64.3183 22.0846C64.7671 21.8687 65.2671 21.7607 65.8181 21.7607C66.2612 21.7607 66.6617 21.8232 67.0196 21.9482C67.3832 22.0675 67.6928 22.2635 67.9485 22.5362C68.2098 22.8089 68.4086 23.1639 68.545 23.6014C68.6813 24.0331 68.7495 24.5643 68.7495 25.1949V31.1514H66.6873V25.1864C66.6873 24.7433 66.622 24.3939 66.4913 24.1382C66.3663 23.8769 66.1817 23.6923 65.9374 23.5843C65.6988 23.4707 65.4006 23.4139 65.0427 23.4139C64.6904 23.4139 64.3751 23.4878 64.0968 23.6355C63.8184 23.7832 63.5826 23.9848 63.3895 24.2405C63.202 24.4961 63.0572 24.7916 62.9549 25.1267C62.8526 25.4619 62.8015 25.8198 62.8015 26.2004Z" fill="#141414"/>
<path d="M54.7488 20.3973L51.0419 31.1514H48.8008L53.4706 18.7441H54.9022L54.7488 20.3973ZM57.8506 31.1514L54.1352 20.3973L53.9733 18.7441H55.4135L60.1003 31.1514H57.8506ZM57.6716 26.5498V28.2456H50.9226V26.5498H57.6716Z" fill="#141414"/>
<path d="M101.152 14.5514V9.85788H102.035V10.6035H102.084C102.17 10.3509 102.321 10.1522 102.537 10.0076C102.755 9.86093 103.001 9.7876 103.276 9.7876C103.333 9.7876 103.4 9.78963 103.478 9.79371C103.557 9.79778 103.619 9.80288 103.664 9.80899V10.6829C103.627 10.6727 103.562 10.6615 103.469 10.6493C103.375 10.635 103.281 10.6279 103.187 10.6279C102.971 10.6279 102.779 10.6737 102.61 10.7654C102.443 10.855 102.31 10.9803 102.213 11.1413C102.115 11.3002 102.066 11.4815 102.066 11.6852V14.5514H101.152Z" fill="#141414"/>
<path d="M97.9447 14.6462C97.5047 14.6462 97.1207 14.5454 96.7927 14.3437C96.4647 14.1421 96.2101 13.8599 96.0288 13.4973C95.8475 13.1347 95.7568 12.711 95.7568 12.2261C95.7568 11.7393 95.8475 11.3135 96.0288 10.9489C96.2101 10.5842 96.4647 10.3011 96.7927 10.0994C97.1207 9.89771 97.5047 9.79688 97.9447 9.79688C98.3847 9.79688 98.7687 9.89771 99.0967 10.0994C99.4247 10.3011 99.6793 10.5842 99.8606 10.9489C100.042 11.3135 100.133 11.7393 100.133 12.2261C100.133 12.711 100.042 13.1347 99.8606 13.4973C99.6793 13.8599 99.4247 14.1421 99.0967 14.3437C98.7687 14.5454 98.3847 14.6462 97.9447 14.6462ZM97.9478 13.8793C98.233 13.8793 98.4693 13.8039 98.6567 13.6531C98.8441 13.5024 98.9826 13.3017 99.0722 13.0512C99.1639 12.8006 99.2098 12.5246 99.2098 12.2231C99.2098 11.9236 99.1639 11.6486 99.0722 11.3981C98.9826 11.1454 98.8441 10.9428 98.6567 10.79C98.4693 10.6372 98.233 10.5608 97.9478 10.5608C97.6605 10.5608 97.4222 10.6372 97.2327 10.79C97.0453 10.9428 96.9058 11.1454 96.8141 11.3981C96.7245 11.6486 96.6796 11.9236 96.6796 12.2231C96.6796 12.5246 96.7245 12.8006 96.8141 13.0512C96.9058 13.3017 97.0453 13.5024 97.2327 13.6531C97.4222 13.8039 97.6605 13.8793 97.9478 13.8793Z" fill="#141414"/>
<path d="M95.21 9.85785V10.5912H92.5576V9.85785H95.21ZM93.2849 14.5514V9.31394C93.2849 9.0206 93.349 8.77716 93.4774 8.58364C93.6057 8.38807 93.7758 8.24242 93.9877 8.14667C94.1995 8.04889 94.4297 8 94.6783 8C94.8616 8 95.0185 8.01528 95.1488 8.04584C95.2792 8.07436 95.376 8.10084 95.4391 8.12528L95.2252 8.86476C95.1824 8.85254 95.1274 8.83828 95.0602 8.82198C94.993 8.80364 94.9115 8.79448 94.8158 8.79448C94.5937 8.79448 94.4348 8.84948 94.3391 8.95948C94.2454 9.06949 94.1985 9.22838 94.1985 9.43617V14.5514H93.2849Z" fill="#141414"/>
<path d="M87.0692 14.6432C86.6903 14.6432 86.3521 14.5464 86.0547 14.3529C85.7593 14.1573 85.5271 13.8792 85.358 13.5187C85.1909 13.1561 85.1074 12.7211 85.1074 12.2139C85.1074 11.7067 85.192 11.2727 85.361 10.9122C85.5322 10.5516 85.7664 10.2756 86.0639 10.0841C86.3613 9.8926 86.6984 9.79685 87.0753 9.79685C87.3666 9.79685 87.6009 9.84574 87.7781 9.94353C87.9574 10.0393 88.0959 10.1513 88.1937 10.2796C88.2935 10.408 88.3709 10.521 88.4259 10.6188H88.4809V8.29346H89.3945V14.5515H88.5023V13.8212H88.4259C88.3709 13.921 88.2914 14.0351 88.1876 14.1634C88.0857 14.2918 87.9451 14.4038 87.7659 14.4995C87.5866 14.5953 87.3544 14.6432 87.0692 14.6432ZM87.2708 13.864C87.5336 13.864 87.7557 13.7947 87.937 13.6562C88.1203 13.5156 88.2588 13.3211 88.3526 13.0725C88.4483 12.824 88.4962 12.5347 88.4962 12.2047C88.4962 11.8788 88.4493 11.5936 88.3556 11.3491C88.2619 11.1047 88.1244 10.9142 87.9431 10.7777C87.7618 10.6412 87.5377 10.573 87.2708 10.573C86.9958 10.573 86.7667 10.6443 86.5833 10.7869C86.4 10.9295 86.2615 11.124 86.1677 11.3705C86.0761 11.617 86.0302 11.8951 86.0302 12.2047C86.0302 12.5184 86.0771 12.8006 86.1708 13.0512C86.2645 13.3017 86.403 13.5003 86.5864 13.647C86.7717 13.7916 86.9999 13.864 87.2708 13.864Z" fill="#141414"/>
<path d="M81.7793 14.6554C81.4818 14.6554 81.2129 14.6004 80.9726 14.4904C80.7322 14.3784 80.5417 14.2164 80.4011 14.0045C80.2626 13.7927 80.1934 13.533 80.1934 13.2253C80.1934 12.9605 80.2443 12.7426 80.3461 12.5714C80.448 12.4003 80.5855 12.2648 80.7587 12.165C80.9318 12.0652 81.1253 11.9898 81.3392 11.9389C81.5531 11.888 81.7711 11.8493 81.9932 11.8228C82.2743 11.7902 82.5024 11.7637 82.6776 11.7433C82.8528 11.7209 82.9801 11.6853 83.0596 11.6364C83.139 11.5875 83.1788 11.5081 83.1788 11.3981V11.3767C83.1788 11.1098 83.1034 10.903 82.9526 10.7564C82.8039 10.6097 82.5819 10.5363 82.2865 10.5363C81.9789 10.5363 81.7365 10.6046 81.5592 10.7411C81.3841 10.8755 81.2628 11.0253 81.1956 11.1903L80.337 10.9947C80.4388 10.7095 80.5875 10.4793 80.7831 10.3041C80.9807 10.1269 81.2078 9.99855 81.4645 9.9191C81.7212 9.83762 81.9911 9.79688 82.2743 9.79688C82.4617 9.79688 82.6603 9.81928 82.8701 9.8641C83.082 9.90688 83.2796 9.98633 83.4629 10.1024C83.6483 10.2186 83.8001 10.3846 83.9182 10.6005C84.0364 10.8144 84.0955 11.0925 84.0955 11.4347V14.5515H83.2032V13.9098H83.1665C83.1075 14.028 83.0188 14.1441 82.9007 14.2582C82.7825 14.3722 82.6308 14.467 82.4454 14.5423C82.26 14.6177 82.038 14.6554 81.7793 14.6554ZM81.9779 13.922C82.2305 13.922 82.4464 13.8721 82.6257 13.7723C82.807 13.6725 82.9445 13.5421 83.0382 13.3812C83.1339 13.2182 83.1818 13.044 83.1818 12.8587V12.2536C83.1492 12.2862 83.0861 12.3168 82.9924 12.3453C82.9007 12.3718 82.7958 12.3952 82.6776 12.4156C82.5595 12.4339 82.4444 12.4512 82.3323 12.4675C82.2203 12.4818 82.1266 12.494 82.0512 12.5042C81.874 12.5266 81.712 12.5643 81.5654 12.6173C81.4207 12.6702 81.3046 12.7466 81.217 12.8464C81.1315 12.9442 81.0887 13.0746 81.0887 13.2376C81.0887 13.4637 81.1722 13.6348 81.3392 13.7509C81.5063 13.865 81.7192 13.922 81.9779 13.922Z" fill="#141414"/>
<path d="M77.2054 14.6462C76.7654 14.6462 76.3814 14.5454 76.0535 14.3437C75.7255 14.1421 75.4708 13.8599 75.2895 13.4973C75.1082 13.1347 75.0176 12.711 75.0176 12.2261C75.0176 11.7393 75.1082 11.3135 75.2895 10.9489C75.4708 10.5842 75.7255 10.3011 76.0535 10.0994C76.3814 9.89771 76.7654 9.79688 77.2054 9.79688C77.6455 9.79688 78.0295 9.89771 78.3574 10.0994C78.6854 10.3011 78.9401 10.5842 79.1214 10.9489C79.3027 11.3135 79.3933 11.7393 79.3933 12.2261C79.3933 12.711 79.3027 13.1347 79.1214 13.4973C78.9401 13.8599 78.6854 14.1421 78.3574 14.3437C78.0295 14.5454 77.6455 14.6462 77.2054 14.6462ZM77.2085 13.8793C77.4937 13.8793 77.73 13.8039 77.9174 13.6531C78.1048 13.5024 78.2434 13.3017 78.333 13.0512C78.4247 12.8006 78.4705 12.5246 78.4705 12.2231C78.4705 11.9236 78.4247 11.6486 78.333 11.3981C78.2434 11.1454 78.1048 10.9428 77.9174 10.79C77.73 10.6372 77.4937 10.5608 77.2085 10.5608C76.9213 10.5608 76.6829 10.6372 76.4935 10.79C76.3061 10.9428 76.1665 11.1454 76.0748 11.3981C75.9852 11.6486 75.9404 11.9236 75.9404 12.2231C75.9404 12.5246 75.9852 12.8006 76.0748 13.0512C76.1665 13.3017 76.3061 13.5024 76.4935 13.6531C76.6829 13.8039 76.9213 13.8793 77.2085 13.8793Z" fill="#141414"/>
<path d="M73.9996 8.29346V14.5515H73.0859V8.29346H73.9996Z" fill="#141414"/>
<path d="M68.857 11.7647V14.5515H67.9434V9.85799H68.8203V10.6219H68.8784C68.9864 10.3734 69.1554 10.1737 69.3856 10.023C69.6179 9.87225 69.9102 9.79688 70.2626 9.79688C70.5824 9.79688 70.8626 9.8641 71.1029 9.99855C71.3433 10.131 71.5297 10.3286 71.6621 10.5914C71.7945 10.8541 71.8607 11.1791 71.8607 11.5661V14.5515H70.9471V11.6761C70.9471 11.3359 70.8585 11.0701 70.6813 10.8786C70.504 10.6851 70.2606 10.5883 69.9509 10.5883C69.7391 10.5883 69.5506 10.6341 69.3856 10.7258C69.2227 10.8175 69.0933 10.9519 68.9976 11.1292C68.9039 11.3043 68.857 11.5162 68.857 11.7647Z" fill="#141414"/>
<path d="M61.8597 14.5514L60.4785 9.85791H61.4227L62.3425 13.3047H62.3883L63.3111 9.85791H64.2553L65.172 13.2894H65.2179L66.1315 9.85791H67.0757L65.6976 14.5514H64.7656L63.8123 11.1627H63.742L62.7886 14.5514H61.8597Z" fill="#141414"/>
<path d="M57.7777 14.6462C57.3377 14.6462 56.9537 14.5454 56.6257 14.3437C56.2977 14.1421 56.0431 13.8599 55.8618 13.4973C55.6805 13.1347 55.5898 12.711 55.5898 12.2261C55.5898 11.7393 55.6805 11.3135 55.8618 10.9489C56.0431 10.5842 56.2977 10.3011 56.6257 10.0994C56.9537 9.89771 57.3377 9.79688 57.7777 9.79688C58.2177 9.79688 58.6017 9.89771 58.9297 10.0994C59.2577 10.3011 59.5123 10.5842 59.6936 10.9489C59.8749 11.3135 59.9656 11.7393 59.9656 12.2261C59.9656 12.711 59.8749 13.1347 59.6936 13.4973C59.5123 13.8599 59.2577 14.1421 58.9297 14.3437C58.6017 14.5454 58.2177 14.6462 57.7777 14.6462ZM57.7808 13.8793C58.066 13.8793 58.3023 13.8039 58.4897 13.6531C58.6771 13.5024 58.8156 13.3017 58.9053 13.0512C58.9969 12.8006 59.0428 12.5246 59.0428 12.2231C59.0428 11.9236 58.9969 11.6486 58.9053 11.3981C58.8156 11.1454 58.6771 10.9428 58.4897 10.79C58.3023 10.6372 58.066 10.5608 57.7808 10.5608C57.4935 10.5608 57.2552 10.6372 57.0657 10.79C56.8783 10.9428 56.7388 11.1454 56.6471 11.3981C56.5575 11.6486 56.5127 11.9236 56.5127 12.2231C56.5127 12.5246 56.5575 12.8006 56.6471 13.0512C56.7388 13.3017 56.8783 13.5024 57.0657 13.6531C57.2552 13.8039 57.4935 13.8793 57.7808 13.8793Z" fill="#141414"/>
<path d="M51.69 14.5515H49.6641V8.29346H51.7541C52.3673 8.29346 52.8939 8.41874 53.3339 8.66931C53.774 8.91783 54.1111 9.27535 54.3454 9.74185C54.5817 10.2063 54.6998 10.7635 54.6998 11.4133C54.6998 12.0652 54.5807 12.6254 54.3423 13.0939C54.106 13.5625 53.7638 13.923 53.3156 14.1756C52.8674 14.4262 52.3256 14.5515 51.69 14.5515ZM50.6083 13.7265H51.638C52.1147 13.7265 52.5109 13.6368 52.8267 13.4576C53.1424 13.2763 53.3788 13.0145 53.5356 12.6722C53.6925 12.328 53.7709 11.9083 53.7709 11.4133C53.7709 10.9224 53.6925 10.5058 53.5356 10.1635C53.3808 9.8213 53.1496 9.56157 52.842 9.38434C52.5344 9.20711 52.1524 9.11849 51.6961 9.11849H50.6083V13.7265Z" fill="#141414"/>
</g>
<defs>
<clipPath id="clip0_11725_20148">
<rect width="121" height="40" fill="white" transform="translate(0.664062)"/>
</clipPath>
</defs>
</svg>
