<svg width="120" height="40" viewBox="0 0 120 40" fill="none" xmlns="http://www.w3.org/2000/svg">
<g clip-path="url(#clip0_10243_87606)">
<path d="M9.56152 0.499023H110.444C110.805 0.499023 111.169 0.498992 111.527 0.500977C111.83 0.502906 112.14 0.508762 112.447 0.513672H112.45C113.096 0.520843 113.741 0.576756 114.378 0.682617V0.683594C114.917 0.775174 115.442 0.936272 115.939 1.16309L116.15 1.26465C117.262 1.83481 118.166 2.73736 118.736 3.8457C119.015 4.39879 119.208 4.99078 119.309 5.60156L119.31 5.60352C119.417 6.24064 119.477 6.88526 119.488 7.53125C119.492 7.83338 119.492 8.13701 119.492 8.44336V8.4541C119.5 8.81006 119.5 9.16807 119.5 9.53516V30.4639L119.492 31.5469V31.5576C119.492 31.8677 119.492 32.1647 119.488 32.4707C119.477 33.1168 119.417 33.7613 119.31 34.3984L119.309 34.4004C119.208 35.0125 119.015 35.6061 118.735 36.1602C118.452 36.7089 118.084 37.2096 117.645 37.6445L117.642 37.6475C117.205 38.0864 116.701 38.4526 116.148 38.7324C115.66 38.9783 115.141 39.1598 114.606 39.2725L114.38 39.3164C113.742 39.4216 113.096 39.4783 112.449 39.4863H112.444C112.142 39.4931 111.833 39.4971 111.531 39.4971H111.528C111.17 39.4991 110.805 39.499 110.444 39.499H9.56152C9.19374 39.499 8.83181 39.4991 8.4668 39.4971H8.46387C8.16111 39.4971 7.85969 39.4931 7.55273 39.4863H7.54883C6.90131 39.4778 6.25523 39.421 5.61621 39.3164H5.61719C5.00293 39.211 4.40805 39.0141 3.85254 38.7324H3.85156C3.29855 38.4528 2.79388 38.0864 2.35742 37.6475L2.35352 37.6436C1.96841 37.2646 1.6393 36.8336 1.37598 36.3633L1.26758 36.1592C0.985665 35.6055 0.790377 35.0119 0.688477 34.3994L0.6875 34.3984L0.617188 33.9199C0.555297 33.4403 0.521374 32.9574 0.515625 32.4736L0.514648 32.4648L0.5 31.5498V8.45117C0.50504 8.13583 0.505488 7.84007 0.514648 7.53809L0.515625 7.52832C0.5233 6.88334 0.58017 6.23961 0.6875 5.60352L0.688477 5.60254C0.790699 4.99048 0.985962 4.39714 1.26758 3.84375V3.84277C1.54718 3.29081 1.91421 2.78723 2.35449 2.35156L2.35645 2.35059C2.79508 1.91306 3.29934 1.54591 3.85156 1.26367C4.4067 0.982931 5.00148 0.786396 5.61523 0.682617C6.25412 0.577161 6.90031 0.521277 7.54785 0.513672H7.5498L8.4668 0.500977C8.83182 0.498988 9.19372 0.499023 9.56152 0.499023Z" stroke="#141414"/>
<path d="M24.7661 20.2967C24.7768 19.462 24.9985 18.6436 25.4105 17.9177C25.8226 17.1917 26.4115 16.5818 27.1226 16.1446C26.6709 15.4994 26.0749 14.9685 25.3821 14.594C24.6893 14.2194 23.9187 14.0116 23.1315 13.9869C21.4522 13.8107 19.8243 14.9918 18.9686 14.9918C18.0963 14.9918 16.7788 14.0044 15.3601 14.0336C14.4424 14.0633 13.548 14.3301 12.7642 14.8082C11.9803 15.2862 11.3336 15.9592 10.8871 16.7615C8.95314 20.1099 10.3957 25.031 12.2483 27.7376C13.1752 29.0629 14.2585 30.5434 15.676 30.4909C17.063 30.4333 17.5811 29.6064 19.2554 29.6064C20.9141 29.6064 21.4002 30.4909 22.8464 30.4575C24.3348 30.4333 25.2725 29.1262 26.1669 27.7883C26.8329 26.844 27.3453 25.8003 27.6853 24.6958C26.8206 24.3301 26.0827 23.7179 25.5636 22.9356C25.0444 22.1533 24.7671 21.2355 24.7661 20.2967Z" fill="#141414"/>
<path d="M22.0356 12.2074C22.8471 11.2332 23.247 9.98103 23.1501 8.7168C21.9103 8.84702 20.765 9.43958 19.9426 10.3764C19.5404 10.8341 19.2324 11.3665 19.0362 11.9433C18.8399 12.52 18.7593 13.1298 18.7988 13.7378C19.419 13.7442 20.0325 13.6098 20.5932 13.3447C21.1538 13.0796 21.647 12.6907 22.0356 12.2074Z" fill="#141414"/>
<path d="M42.2969 27.1387H37.5635L36.4268 30.4951H34.4219L38.9053 18.0771H40.9883L45.4717 30.4951H43.4326L42.2969 27.1387ZM38.0537 25.5899H41.8057L39.9561 20.1426H39.9043L38.0537 25.5899Z" fill="#141414"/>
<path d="M55.1534 25.9687C55.1534 28.7822 53.6475 30.5898 51.375 30.5898C50.7994 30.6199 50.2269 30.4873 49.7231 30.2072C49.2193 29.927 48.8046 29.5107 48.5264 29.0058H48.4834V33.4902H46.625V21.4414H48.4239V22.9472H48.458C48.749 22.4448 49.1707 22.0306 49.6784 21.7487C50.186 21.4669 50.7605 21.3279 51.3409 21.3466C53.6387 21.3466 55.1534 23.163 55.1534 25.9687ZM53.2432 25.9687C53.2432 24.1357 52.2959 22.9306 50.8506 22.9306C49.4307 22.9306 48.4756 24.1611 48.4756 25.9687C48.4756 27.7929 49.4307 29.0146 50.8506 29.0146C52.2959 29.0146 53.2432 27.8183 53.2432 25.9687Z" fill="#141414"/>
<path d="M65.1221 25.9687C65.1221 28.7822 63.6162 30.5898 61.3438 30.5898C60.7681 30.6199 60.1956 30.4873 59.6918 30.2072C59.188 29.927 58.7733 29.5107 58.4952 29.0058H58.4521V33.4902H56.5938V21.4414H58.3926V22.9472H58.4268C58.7177 22.4448 59.1394 22.0306 59.6471 21.7487C60.1547 21.4669 60.7292 21.3279 61.3096 21.3466C63.6075 21.3466 65.1221 23.163 65.1221 25.9687ZM63.2119 25.9687C63.2119 24.1357 62.2647 22.9306 60.8194 22.9306C59.3994 22.9306 58.4444 24.1611 58.4444 25.9687C58.4444 27.7929 59.3994 29.0146 60.8194 29.0146C62.2647 29.0146 63.2119 27.8183 63.2119 25.9687H63.2119Z" fill="#141414"/>
<path d="M71.6992 27.0355C71.8369 28.2669 73.0332 29.0754 74.668 29.0754C76.2344 29.0754 77.3614 28.2669 77.3614 27.1565C77.3614 26.1926 76.6817 25.6155 75.0723 25.22L73.4629 24.8323C71.1827 24.2815 70.1241 23.2151 70.1241 21.4846C70.1241 19.342 71.9912 17.8704 74.6426 17.8704C77.2666 17.8704 79.0655 19.342 79.126 21.4846H77.25C77.1377 20.2454 76.1133 19.4973 74.6162 19.4973C73.1191 19.4973 72.0947 20.2542 72.0947 21.3557C72.0947 22.2337 72.749 22.7503 74.3496 23.1457L75.7178 23.4817C78.2656 24.0842 79.3242 25.1077 79.3242 26.924C79.3242 29.2473 77.4736 30.7024 74.5303 30.7024C71.7764 30.7024 69.917 29.2815 69.7969 27.0354L71.6992 27.0355Z" fill="#141414"/>
<path d="M83.3398 19.2996V21.4421H85.0615V22.9138H83.3398V27.905C83.3398 28.6804 83.6846 29.0418 84.4414 29.0418C84.6458 29.0382 84.8498 29.0238 85.0527 28.9987V30.4616C84.7125 30.5252 84.3666 30.554 84.0205 30.5476C82.1875 30.5476 81.4726 29.8591 81.4726 28.1032V22.9138H80.1562V21.4421H81.4726V19.2996H83.3398Z" fill="#141414"/>
<path d="M86.0625 25.97C86.0625 23.1213 87.7402 21.3313 90.3564 21.3313C92.9814 21.3313 94.6514 23.1213 94.6514 25.97C94.6514 28.8264 92.9902 30.6086 90.3564 30.6086C87.7236 30.6086 86.0625 28.8264 86.0625 25.97ZM92.7578 25.97C92.7578 24.0159 91.8623 22.8625 90.3564 22.8625C88.8506 22.8625 87.956 24.0247 87.956 25.97C87.956 27.9319 88.8506 29.0764 90.3564 29.0764C91.8623 29.0764 92.7578 27.9319 92.7578 25.97H92.7578Z" fill="#141414"/>
<path d="M96.1797 21.4413H97.9522V22.9823H97.9952C98.1151 22.501 98.397 22.0757 98.7936 21.7778C99.1902 21.4799 99.6773 21.3276 100.173 21.3465C100.387 21.3458 100.601 21.3691 100.81 21.4159V23.1542C100.539 23.0715 100.257 23.0336 99.9746 23.0419C99.7046 23.0309 99.4355 23.0785 99.1856 23.1814C98.9358 23.2843 98.7112 23.44 98.5272 23.6379C98.3432 23.8358 98.2043 24.0712 98.1198 24.3278C98.0354 24.5845 98.0075 24.8564 98.0381 25.1249V30.495H96.1797L96.1797 21.4413Z" fill="#141414"/>
<path d="M109.378 27.8372C109.128 29.4807 107.527 30.6086 105.479 30.6086C102.846 30.6086 101.211 28.844 101.211 26.0129C101.211 23.1731 102.854 21.3313 105.401 21.3313C107.906 21.3313 109.481 23.052 109.481 25.7971V26.4338H103.087V26.5461C103.057 26.8793 103.099 27.215 103.209 27.5308C103.319 27.8467 103.496 28.1355 103.726 28.378C103.956 28.6206 104.236 28.8113 104.545 28.9376C104.855 29.0639 105.188 29.1229 105.522 29.1106C105.962 29.1517 106.402 29.05 106.779 28.8206C107.156 28.5911 107.448 28.2462 107.613 27.8371L109.378 27.8372ZM103.096 25.135H107.622C107.639 24.8354 107.593 24.5356 107.489 24.2544C107.384 23.9732 107.222 23.7166 107.014 23.5009C106.805 23.2851 106.554 23.1148 106.277 23.0006C105.999 22.8863 105.701 22.8307 105.401 22.8372C105.099 22.8354 104.799 22.8935 104.519 23.0082C104.239 23.123 103.984 23.292 103.77 23.5057C103.555 23.7193 103.385 23.9733 103.27 24.2529C103.154 24.5326 103.095 24.8324 103.096 25.135V25.135Z" fill="#141414"/>
<path d="M37.8271 8.7304C38.2168 8.70244 38.6077 8.7613 38.9718 8.90274C39.3359 9.04417 39.6641 9.26465 39.9327 9.54828C40.2013 9.8319 40.4036 10.1716 40.525 10.5429C40.6464 10.9141 40.6839 11.3077 40.6348 11.6952C40.6348 13.6015 39.6045 14.6972 37.8271 14.6972H35.6719V8.7304H37.8271ZM36.5986 13.8534H37.7236C38.002 13.87 38.2806 13.8244 38.5392 13.7198C38.7977 13.6152 39.0297 13.4542 39.2182 13.2487C39.4067 13.0431 39.5469 12.7981 39.6288 12.5315C39.7107 12.2648 39.7321 11.9833 39.6914 11.7074C39.7291 11.4326 39.7056 11.1528 39.6224 10.8881C39.5393 10.6235 39.3987 10.3805 39.2106 10.1765C39.0226 9.97261 38.7917 9.8128 38.5346 9.70856C38.2776 9.60433 38.0006 9.55824 37.7236 9.57361H36.5986V13.8534Z" fill="#141414"/>
<path d="M41.6819 12.4448C41.6536 12.1489 41.6875 11.8503 41.7813 11.5682C41.8751 11.2862 42.0269 11.0268 42.2268 10.8068C42.4268 10.5868 42.6705 10.4111 42.9423 10.2908C43.2142 10.1705 43.5082 10.1084 43.8055 10.1084C44.1027 10.1084 44.3967 10.1705 44.6686 10.2908C44.9404 10.4111 45.1841 10.5868 45.3841 10.8068C45.584 11.0268 45.7358 11.2862 45.8296 11.5682C45.9235 11.8503 45.9573 12.1489 45.929 12.4448C45.9578 12.741 45.9244 13.04 45.8308 13.3225C45.7372 13.605 45.5855 13.8648 45.3855 14.0853C45.1856 14.3057 44.9417 14.4818 44.6695 14.6023C44.3974 14.7229 44.1031 14.7851 43.8055 14.7851C43.5078 14.7851 43.2135 14.7229 42.9414 14.6023C42.6693 14.4818 42.4254 14.3057 42.2254 14.0853C42.0254 13.8648 41.8737 13.605 41.7801 13.3225C41.6865 13.04 41.6531 12.741 41.6819 12.4448ZM45.0149 12.4448C45.0149 11.4687 44.5764 10.8979 43.8069 10.8979C43.0345 10.8979 42.5999 11.4687 42.5999 12.4448C42.5999 13.4287 43.0345 13.9951 43.8069 13.9951C44.5765 13.9951 45.0149 13.4248 45.0149 12.4448H45.0149Z" fill="#141414"/>
<path d="M51.5742 14.6973H50.6523L49.7217 11.3809H49.6514L48.7246 14.6973H47.8115L46.5703 10.1943H47.4717L48.2783 13.6303H48.3447L49.2705 10.1943H50.1231L51.0488 13.6303H51.1191L51.9219 10.1943H52.8105L51.5742 14.6973Z" fill="#141414"/>
<path d="M53.8594 10.1939H54.7148V10.9092H54.7813C54.8939 10.6523 55.0839 10.4369 55.3248 10.2931C55.5657 10.1493 55.8454 10.0842 56.125 10.107C56.3441 10.0905 56.5641 10.1235 56.7687 10.2036C56.9733 10.2837 57.1573 10.4088 57.3069 10.5697C57.4566 10.7305 57.5682 10.923 57.6334 11.1328C57.6986 11.3426 57.7158 11.5644 57.6836 11.7818V14.6968H56.7949V12.0049C56.7949 11.2813 56.4805 10.9214 55.8232 10.9214C55.6745 10.9145 55.526 10.9398 55.3879 10.9957C55.2499 11.0515 55.1255 11.1365 55.0234 11.2449C54.9213 11.3533 54.8438 11.4825 54.7963 11.6236C54.7487 11.7647 54.7323 11.9145 54.748 12.0625V14.6968H53.8594L53.8594 10.1939Z" fill="#141414"/>
<path d="M59.0938 8.43652H59.9824V14.6973H59.0938V8.43652Z" fill="#141414"/>
<path d="M61.2131 12.4429C61.1849 12.147 61.2187 11.8484 61.3126 11.5663C61.4065 11.2842 61.5582 11.0249 61.7582 10.8049C61.9582 10.5849 62.2019 10.4091 62.4738 10.2889C62.7456 10.1686 63.0396 10.1064 63.3369 10.1064C63.6342 10.1064 63.9282 10.1686 64.2001 10.2889C64.472 10.4091 64.7157 10.5849 64.9157 10.8049C65.1156 11.0249 65.2674 11.2842 65.3613 11.5663C65.4551 11.8484 65.489 12.147 65.4607 12.4429C65.4895 12.7391 65.456 13.0381 65.3624 13.3207C65.2688 13.6032 65.1171 13.863 64.9171 14.0834C64.7171 14.3038 64.4732 14.4799 64.201 14.6005C63.9289 14.721 63.6346 14.7833 63.3369 14.7833C63.0393 14.7833 62.745 14.721 62.4728 14.6005C62.2007 14.4799 61.9568 14.3038 61.7568 14.0834C61.5568 13.863 61.4051 13.6032 61.3114 13.3207C61.2178 13.0381 61.1843 12.7391 61.2131 12.4429ZM64.5461 12.4429C64.5461 11.4668 64.1077 10.896 63.3381 10.896C62.5657 10.896 62.1311 11.4668 62.1311 12.4429C62.1311 13.4268 62.5657 13.9932 63.3381 13.9932C64.1077 13.9932 64.5462 13.4229 64.5462 12.4429H64.5461Z" fill="#141414"/>
<path d="M66.4062 13.4248C66.4062 12.6142 67.0098 12.147 68.081 12.0806L69.3008 12.0102V11.6216C69.3008 11.146 68.9863 10.8774 68.3789 10.8774C67.8828 10.8774 67.5391 11.0596 67.4404 11.3779H66.5801C66.6709 10.6045 67.3984 10.1084 68.4199 10.1084C69.5488 10.1084 70.1855 10.6704 70.1855 11.6216V14.6982H69.3301V14.0654H69.2598C69.117 14.2924 68.9166 14.4775 68.679 14.6017C68.4414 14.7259 68.1751 14.7848 67.9072 14.7724C67.7182 14.7921 67.5271 14.7719 67.3464 14.7132C67.1656 14.6545 66.9992 14.5586 66.8577 14.4316C66.7163 14.3047 66.6031 14.1495 66.5253 13.9761C66.4476 13.8026 66.407 13.6149 66.4062 13.4248ZM69.3008 13.04V12.6636L68.2012 12.7339C67.5811 12.7754 67.2998 12.9863 67.2998 13.3833C67.2998 13.7886 67.6514 14.0244 68.1348 14.0244C68.2764 14.0387 68.4195 14.0244 68.5555 13.9823C68.6915 13.9403 68.8177 13.8712 68.9265 13.7794C69.0353 13.6876 69.1245 13.5748 69.1888 13.4477C69.2531 13.3207 69.2912 13.1821 69.3008 13.04Z" fill="#141414"/>
<path d="M71.3438 12.4436C71.3438 11.0208 72.0752 10.1194 73.2129 10.1194C73.4943 10.1064 73.7736 10.1738 74.0181 10.3137C74.2627 10.4536 74.4623 10.6602 74.5938 10.9094H74.6602V8.43628H75.5488V14.697H74.6973V13.9856H74.627C74.4854 14.2331 74.2787 14.4371 74.0295 14.5756C73.7802 14.7141 73.4978 14.7817 73.2129 14.7712C72.0674 14.7713 71.3438 13.8699 71.3438 12.4436ZM72.2617 12.4436C72.2617 13.3987 72.712 13.9734 73.4649 13.9734C74.2139 13.9734 74.6768 13.3904 74.6768 12.4475C74.6768 11.509 74.209 10.9177 73.4649 10.9177C72.7168 10.9177 72.2617 11.4963 72.2617 12.4436H72.2617Z" fill="#141414"/>
<path d="M79.2288 12.4448C79.2005 12.1489 79.2343 11.8503 79.3282 11.5682C79.422 11.2862 79.5738 11.0268 79.7737 10.8068C79.9737 10.5868 80.2174 10.4111 80.4892 10.2908C80.7611 10.1705 81.0551 10.1084 81.3523 10.1084C81.6496 10.1084 81.9436 10.1705 82.2154 10.2908C82.4873 10.4111 82.731 10.5868 82.9309 10.8068C83.1309 11.0268 83.2826 11.2862 83.3765 11.5682C83.4703 11.8503 83.5042 12.1489 83.4759 12.4448C83.5047 12.741 83.4713 13.04 83.3777 13.3225C83.2841 13.605 83.1324 13.8648 82.9324 14.0853C82.7324 14.3057 82.4885 14.4818 82.2164 14.6023C81.9443 14.7229 81.65 14.7851 81.3523 14.7851C81.0547 14.7851 80.7604 14.7229 80.4882 14.6023C80.2161 14.4818 79.9722 14.3057 79.7722 14.0853C79.5722 13.8648 79.4206 13.605 79.327 13.3225C79.2334 13.04 79.1999 12.741 79.2288 12.4448ZM82.5618 12.4448C82.5618 11.4687 82.1233 10.8979 81.3538 10.8979C80.5813 10.8979 80.1468 11.4687 80.1468 12.4448C80.1468 13.4287 80.5814 13.9951 81.3538 13.9951C82.1233 13.9951 82.5618 13.4248 82.5618 12.4448Z" fill="#141414"/>
<path d="M84.6719 10.1939H85.5273V10.9092H85.5938C85.7064 10.6523 85.8964 10.4369 86.1373 10.2931C86.3782 10.1493 86.6579 10.0842 86.9375 10.107C87.1566 10.0905 87.3766 10.1235 87.5812 10.2036C87.7858 10.2837 87.9698 10.4088 88.1194 10.5697C88.2691 10.7305 88.3807 10.923 88.4459 11.1328C88.5111 11.3426 88.5283 11.5644 88.4961 11.7818V14.6968H87.6074V12.0049C87.6074 11.2813 87.293 10.9214 86.6358 10.9214C86.487 10.9145 86.3385 10.9398 86.2004 10.9957C86.0624 11.0515 85.938 11.1365 85.8359 11.2449C85.7338 11.3533 85.6563 11.4825 85.6088 11.6236C85.5612 11.7647 85.5448 11.9145 85.5605 12.0625V14.6968H84.6719V10.1939Z" fill="#141414"/>
<path d="M93.5107 9.07324V10.2148H94.4863V10.9634H93.5107V13.2788C93.5107 13.7505 93.7051 13.957 94.1475 13.957C94.2607 13.9567 94.3739 13.9498 94.4863 13.9365V14.6768C94.3267 14.7053 94.165 14.7205 94.0029 14.7222C93.0146 14.7222 92.6211 14.3745 92.6211 13.5063V10.9633H91.9062V10.2148H92.6211V9.07324H93.5107Z" fill="#141414"/>
<path d="M95.7031 8.43652H96.584V10.918H96.6543C96.7724 10.6587 96.9676 10.4421 97.2133 10.2977C97.459 10.1534 97.7433 10.0883 98.0273 10.1113C98.2453 10.0995 98.4631 10.1359 98.6654 10.2179C98.8677 10.2999 99.0494 10.4256 99.1975 10.586C99.3456 10.7463 99.4565 10.9373 99.5223 11.1455C99.5881 11.3536 99.6071 11.5737 99.5781 11.79V14.6973H98.6885V12.0093C98.6885 11.29 98.3535 10.9258 97.7256 10.9258C97.5729 10.9132 97.4193 10.9342 97.2755 10.9873C97.1317 11.0404 97.0013 11.1242 96.8933 11.2329C96.7853 11.3417 96.7023 11.4727 96.6503 11.6168C96.5982 11.761 96.5783 11.9147 96.5918 12.0674V14.6973H95.7032L95.7031 8.43652Z" fill="#141414"/>
<path d="M104.761 13.4805C104.641 13.8921 104.379 14.2481 104.022 14.4862C103.666 14.7244 103.237 14.8295 102.81 14.7833C102.514 14.7911 102.219 14.7343 101.946 14.6168C101.674 14.4992 101.43 14.3238 101.232 14.1027C101.034 13.8815 100.887 13.62 100.8 13.3361C100.713 13.0523 100.69 12.753 100.73 12.4591C100.691 12.1642 100.715 11.8642 100.801 11.5796C100.888 11.2949 101.035 11.0321 101.231 10.8091C101.428 10.586 101.671 10.4078 101.943 10.2866C102.214 10.1654 102.509 10.104 102.806 10.1065C104.059 10.1065 104.815 10.9625 104.815 12.3765V12.6866H101.635V12.7364C101.621 12.9017 101.642 13.068 101.696 13.2247C101.751 13.3815 101.837 13.5252 101.95 13.6467C102.063 13.7681 102.2 13.8646 102.352 13.93C102.504 13.9954 102.669 14.0283 102.835 14.0264C103.047 14.0519 103.263 14.0137 103.453 13.9164C103.644 13.8192 103.802 13.6675 103.906 13.4805L104.761 13.4805ZM101.635 12.0294H103.91C103.921 11.8782 103.9 11.7264 103.85 11.5837C103.799 11.441 103.718 11.3105 103.614 11.2007C103.51 11.0908 103.383 11.004 103.243 10.9458C103.103 10.8877 102.953 10.8594 102.801 10.8629C102.648 10.8609 102.495 10.8898 102.353 10.9477C102.21 11.0057 102.081 11.0915 101.972 11.2003C101.864 11.309 101.778 11.4383 101.72 11.5807C101.662 11.7231 101.633 11.8757 101.635 12.0294H101.635Z" fill="#141414"/>
</g>
<defs>
<clipPath id="clip0_10243_87606">
<rect width="119.664" height="40" fill="white"/>
</clipPath>
</defs>
</svg>
