<svg width="136" height="40" viewBox="0 0 136 40" fill="none" xmlns="http://www.w3.org/2000/svg">
<g clip-path="url(#clip0_10243_87634)">
<path d="M5.66602 0.500977H130.662C133.141 0.500977 135.164 2.52184 135.164 5.00098V35.001C135.164 37.4708 133.14 39.501 130.662 39.501H5.66602C3.18592 39.501 1.16406 37.471 1.16406 35.001V5.00098C1.16406 2.52167 3.18527 0.500977 5.66602 0.500977Z" stroke="#141414"/>
<path d="M71.7832 13.2329C70.8817 13.2329 70.1217 12.9162 69.5207 12.2928C68.9247 11.6868 68.5919 10.8514 68.6068 9.99852C68.6068 9.0883 68.9147 8.31772 69.5207 7.70675C70.1192 7.08331 70.8792 6.7666 71.7807 6.7666C72.6723 6.7666 73.4323 7.08331 74.0432 7.70675C74.6492 8.33767 74.9571 9.10825 74.9571 9.99852C74.9472 10.9112 74.6393 11.6818 74.0432 12.2903C73.4447 12.9187 72.6847 13.2329 71.7832 13.2329ZM44.9587 13.2329C44.0771 13.2329 43.3121 12.9212 42.6863 12.3053C42.0654 11.6918 41.75 10.9162 41.75 10.001C41.75 9.0858 42.0654 8.31024 42.6863 7.69678C43.2997 7.08082 44.0646 6.7691 44.9587 6.7691C45.3958 6.7691 45.8205 6.85638 46.2278 7.03343C46.6276 7.2055 46.953 7.43992 47.1939 7.7267L47.2535 7.79902L46.5804 8.46236L46.5109 8.38007C46.1309 7.9262 45.6218 7.70426 44.9488 7.70426C44.3478 7.70426 43.8237 7.91872 43.3916 8.34266C42.957 8.7691 42.736 9.3277 42.736 10.0035C42.736 10.6793 42.957 11.2379 43.3916 11.6644C43.8237 12.0883 44.3478 12.3028 44.9488 12.3028C45.5895 12.3028 46.1284 12.0883 46.5482 11.6644C46.7965 11.415 46.9505 11.0659 47.0051 10.6245H44.8469V9.69179H47.9315L47.9439 9.77658C47.9662 9.93368 47.9886 10.0958 47.9886 10.2454C47.9886 11.1058 47.7303 11.8015 47.2187 12.3152C46.6376 12.9237 45.8776 13.2329 44.9587 13.2329ZM80.6245 13.1008H79.6733L76.7602 8.41997L76.785 9.26286V13.0983H75.8338V6.90127H76.9191L76.9489 6.94865L79.6882 11.3576L79.6634 10.5172V6.90127H80.6245V13.1008ZM64.6356 13.1008H63.672V7.83393H62.0006V6.90127H66.3046V7.83393H64.6332V13.1008H64.6356ZM61.2158 13.1008H60.2547V6.90127H61.2158V13.1008ZM55.8142 13.1008H54.853V7.83393H53.1816V6.90127H57.4856V7.83393H55.8142V13.1008ZM52.5732 13.0908H48.8876V6.90127H52.5732V7.83393H49.8512V9.53468H52.3074V10.4574H49.8512V12.1581H52.5732V13.0908ZM70.226 11.6519C70.6557 12.0833 71.1772 12.3003 71.7832 12.3003C72.4066 12.3003 72.9157 12.0883 73.3404 11.6519C73.7626 11.2279 73.9762 10.6718 73.9762 10.001C73.9762 9.33019 73.7626 8.77159 73.3429 8.35014C72.9132 7.91872 72.3892 7.70176 71.7857 7.70176C71.1623 7.70176 70.6532 7.91373 70.231 8.35014C69.8088 8.77408 69.5952 9.33019 69.5952 10.001C69.5952 10.6718 69.8063 11.2304 70.226 11.6519Z" fill="#141414"/>
<path fill-rule="evenodd" clip-rule="evenodd" d="M68.5188 21.7554C66.1719 21.7554 64.2695 23.5434 64.2695 26.0098C64.2695 28.4537 66.1843 30.2641 68.5188 30.2641C70.8658 30.2641 72.7682 28.4636 72.7682 26.0098C72.7682 23.5434 70.8658 21.7554 68.5188 21.7554ZM68.5188 28.5784C67.2348 28.5784 66.1297 27.511 66.1297 25.9998C66.1297 24.4661 67.2373 23.4213 68.5188 23.4213C69.8028 23.4213 70.908 24.4661 70.908 25.9998C70.9105 27.521 69.8028 28.5784 68.5188 28.5784ZM59.2478 21.7554C56.9008 21.7554 54.9984 23.5434 54.9984 26.0098C54.9984 28.4537 56.9133 30.2641 59.2478 30.2641C61.5947 30.2641 63.4971 28.4636 63.4971 26.0098C63.4971 23.5434 61.5922 21.7554 59.2478 21.7554ZM59.2478 28.5784C57.9638 28.5784 56.8586 27.511 56.8586 25.9998C56.8586 24.4661 57.9663 23.4213 59.2478 23.4213C60.5318 23.4213 61.6369 24.4661 61.6369 25.9998C61.6369 27.521 60.5318 28.5784 59.2478 28.5784ZM48.2159 23.0547V24.8552H52.5199C52.3882 25.8651 52.0554 26.6108 51.5463 27.122C50.9155 27.7554 49.942 28.4437 48.2258 28.4437C45.5809 28.4437 43.5121 26.2991 43.5121 23.6432C43.5121 20.9873 45.5809 18.8427 48.2258 18.8427C49.6539 18.8427 50.6945 19.4088 51.4669 20.132L52.7384 18.8552C51.6655 17.8227 50.2375 17.0322 48.2358 17.0322C44.6073 17.0322 41.5625 19.9998 41.5625 23.6332C41.5625 27.2766 44.6048 30.2342 48.2358 30.2342C50.1953 30.2342 51.6655 29.5908 52.8278 28.3789C54.0125 27.1893 54.3875 25.511 54.3875 24.1569C54.3875 23.7355 54.3552 23.3564 54.2882 23.0347H48.2134C48.2159 23.0322 48.2159 23.0547 48.2159 23.0547ZM93.3393 24.4562C92.9842 23.5011 91.9113 21.7454 89.7109 21.7454C87.5303 21.7454 85.7173 23.4686 85.7173 25.9998C85.7173 28.3888 87.5104 30.2542 89.922 30.2542C91.8591 30.2542 92.9866 29.0646 93.4511 28.3664L92.0131 27.3988C91.5363 28.1095 90.8732 28.5759 89.9319 28.5759C88.9807 28.5759 88.3151 28.142 87.873 27.2866L93.538 24.93C93.538 24.9325 93.3393 24.4562 93.3393 24.4562ZM87.5626 25.8776C87.5179 24.2342 88.8342 23.3988 89.7754 23.3988C90.518 23.3988 91.1364 23.7654 91.3475 24.2991L87.5626 25.8776ZM82.9606 29.9998H84.8208V17.5011H82.9606V29.9998ZM79.9059 22.7006H79.8388C79.4191 22.1993 78.6219 21.7454 77.6036 21.7454C75.4901 21.7454 73.543 23.6133 73.543 26.0123C73.543 28.4013 75.4802 30.2467 77.6036 30.2467C78.6094 30.2467 79.4191 29.7903 79.8388 29.2791H79.9059V29.8901C79.9059 31.5135 79.0416 32.3888 77.6483 32.3888C76.5084 32.3888 75.8006 31.5659 75.5125 30.8776L73.8957 31.5559C74.3601 32.6781 75.5994 34.0671 77.6458 34.0671C79.8264 34.0671 81.6741 32.7779 81.6741 29.6332V21.9998H79.9158V22.7006C79.9183 22.7006 79.9059 22.7006 79.9059 22.7006ZM77.77 28.5784C76.486 28.5784 75.4131 27.5011 75.4131 26.0123C75.4131 24.511 76.486 23.4237 77.77 23.4237C79.0416 23.4237 80.0275 24.5235 80.0275 26.0123C80.04 27.5011 79.0441 28.5784 77.77 28.5784ZM102.049 17.5011H97.6011V29.9998H99.4612V25.2666H102.052C104.11 25.2666 106.135 23.7679 106.135 21.3888C106.135 19.0098 104.118 17.5011 102.049 17.5011ZM102.104 23.521H99.4587V19.2317H102.104C103.497 19.2317 104.284 20.3863 104.284 21.3764C104.284 22.3564 103.487 23.521 102.104 23.521ZM113.59 21.733C112.239 21.733 110.846 22.334 110.27 23.6432L111.919 24.3315C112.274 23.6432 112.924 23.4088 113.612 23.4088C114.576 23.4088 115.55 23.9873 115.572 25.0198V25.1519C115.239 24.9624 114.509 24.6731 113.635 24.6731C111.854 24.6731 110.049 25.6507 110.049 27.4836C110.049 29.1619 111.509 30.2392 113.136 30.2392C114.385 30.2392 115.073 29.6731 115.502 29.0173H115.569V29.9848H117.363V25.1968C117.363 22.9674 115.714 21.733 113.59 21.733ZM113.357 28.5784C112.748 28.5784 111.896 28.2791 111.896 27.511C111.896 26.5434 112.959 26.1769 113.866 26.1769C114.685 26.1769 115.073 26.3539 115.56 26.5983C115.425 27.7205 114.482 28.5684 113.357 28.5784ZM123.904 21.9998L121.768 27.4213H121.701L119.488 21.9998H117.487L120.807 29.5784L118.915 33.7903H120.852L125.961 21.9998H123.904ZM107.16 29.9998H109.02V17.5011H107.16V29.9998Z" fill="#141414"/>
<path d="M10.7749 7.97824L22.764 20.0015L10.7807 32.0305C10.6639 31.766 10.6016 31.4395 10.6016 31.0578V8.9456C10.6016 8.56783 10.6627 8.24408 10.7749 7.97824Z" fill="#141414"/>
<path d="M11.4655 7.25461L23.4698 19.2931L27.2262 15.5237L13.1235 7.48016C12.4925 7.11814 11.9093 7.06119 11.4655 7.25461Z" fill="#141414"/>
<path d="M28.1258 16.0377L24.1758 20.0013L28.1263 23.9649L32.5412 21.4453C33.9344 20.6473 33.9344 19.3456 32.5412 18.5575L28.1258 16.0377Z" fill="#141414"/>
<path d="M27.2266 24.4788L23.47 20.7097L11.4669 32.7585C11.9109 32.9488 12.4927 32.8873 13.1235 32.5346L27.2266 24.4788Z" fill="#141414"/>
</g>
<defs>
<clipPath id="clip0_10243_87634">
<rect width="135" height="40" fill="white" transform="translate(0.664062)"/>
</clipPath>
</defs>
</svg>
